<svg width="376" height="376" viewBox="0 0 376 376" fill="none" xmlns="http://www.w3.org/2000/svg">
<path d="M188 367.946C269.838 367.946 336.182 330.258 336.182 283.767C336.182 237.277 269.838 199.588 188 199.588C106.162 199.588 39.8184 237.277 39.8184 283.767C39.8184 330.258 106.162 367.946 188 367.946Z" fill="#F5F5F5"/>
<path d="M249.664 336.843L139.052 272.976C138.079 272.415 137.271 271.608 136.709 270.636C136.147 269.664 135.851 268.561 135.851 267.438C135.851 266.315 136.147 265.211 136.709 264.239C137.271 263.267 138.079 262.46 139.052 261.899L149.964 255.018C151.847 253.933 153.983 253.362 156.157 253.362C158.33 253.362 160.466 253.933 162.349 255.018L272.976 318.893C273.949 319.454 274.757 320.261 275.319 321.233C275.881 322.205 276.177 323.309 276.177 324.432C276.177 325.555 275.881 326.658 275.319 327.63C274.757 328.602 273.949 329.41 272.976 329.97L262.064 336.843C260.18 337.934 258.041 338.508 255.864 338.508C253.687 338.508 251.548 337.934 249.664 336.843Z" fill="#E0E0E0"/>
<path d="M81.4792 278.616C94.7361 278.616 105.483 272.445 105.483 264.832C105.483 257.219 94.7361 251.048 81.4792 251.048C68.2222 251.048 57.4753 257.219 57.4753 264.832C57.4753 272.445 68.2222 278.616 81.4792 278.616Z" fill="#E6E6E6"/>
<path d="M288.888 281.774L299.416 287.828C299.416 287.828 294.039 270.931 296.905 253.898C297.987 247.461 300.311 244.265 301.123 242.543C301.935 240.82 308.23 230.18 302.627 225.307C297.025 220.434 283.993 230.232 284.7 256.455C285.021 265.037 286.428 273.545 288.888 281.774Z" fill="#00A4FF"/>
<path opacity="0.5" d="M288.888 281.774L299.416 287.828C299.416 287.828 294.039 270.931 296.905 253.898C297.987 247.461 300.311 244.265 301.123 242.543C301.935 240.82 308.23 230.18 302.627 225.307C297.025 220.434 283.993 230.232 284.7 256.455C285.021 265.037 286.428 273.545 288.888 281.774Z" fill="black"/>
<path d="M293.784 284.963C293.707 284.965 293.632 284.942 293.569 284.899C293.505 284.856 293.457 284.794 293.43 284.722C293.393 284.609 289.37 273.615 289.497 255.943C289.625 238.271 298.912 228.676 299.003 228.585C299.038 228.55 299.079 228.522 299.125 228.503C299.171 228.484 299.22 228.474 299.27 228.474C299.319 228.474 299.368 228.484 299.414 228.503C299.46 228.522 299.502 228.55 299.537 228.585C299.572 228.62 299.6 228.662 299.619 228.708C299.638 228.754 299.648 228.803 299.648 228.852C299.648 228.902 299.638 228.951 299.619 228.997C299.6 229.043 299.572 229.084 299.537 229.119C299.446 229.21 290.377 238.519 290.249 255.951C290.122 273.382 294.092 284.361 294.137 284.467C294.171 284.56 294.166 284.664 294.124 284.754C294.082 284.844 294.005 284.914 293.912 284.948C293.87 284.961 293.827 284.966 293.784 284.963Z" fill="white"/>
<path d="M293.28 284.361L307.673 292.633C309.173 293.52 310.952 293.809 312.655 293.442C314.358 293.075 315.86 292.08 316.863 290.655C317.815 289.173 318.217 287.403 317.998 285.655C317.306 278.18 314.058 276.458 318.036 273.126C322.014 269.795 323.052 269.562 322.826 266.358C322.6 263.155 320.412 261.756 319.374 260.493C318.337 259.229 315.464 256.582 317.419 252.672C319.374 248.762 322.044 244.979 317.998 243.249C315.584 242.212 311.561 243.595 308.914 246.468C306.267 249.341 304.086 251.409 301.552 252.1C299.018 252.792 293.739 252.905 293.964 257.274C294.19 261.643 295.348 263.14 294.31 265.087C292.355 268.727 283.85 270.795 293.28 284.361Z" fill="#00A4FF"/>
<path d="M300.394 288.813C300.3 288.81 300.211 288.773 300.142 288.71C300.073 288.646 300.029 288.56 300.018 288.467C300.018 288.211 297.807 262.403 315.554 245.227C315.627 245.167 315.721 245.136 315.815 245.142C315.91 245.147 315.999 245.188 316.065 245.257C316.131 245.325 316.168 245.416 316.17 245.511C316.171 245.606 316.137 245.698 316.073 245.769C298.582 262.696 300.747 288.144 300.77 288.399C300.778 288.498 300.747 288.596 300.684 288.672C300.621 288.748 300.53 288.796 300.432 288.805L300.394 288.813Z" fill="white"/>
<path d="M303.244 266.599C303.149 266.599 303.058 266.564 302.988 266.5C302.919 266.436 302.876 266.348 302.868 266.253C302.711 264.253 302.147 262.306 301.212 260.531C300.278 258.756 298.991 257.19 297.431 255.928C297.39 255.9 297.356 255.863 297.329 255.821C297.303 255.779 297.285 255.733 297.276 255.684C297.268 255.635 297.269 255.585 297.28 255.536C297.291 255.488 297.312 255.442 297.341 255.402C297.369 255.361 297.404 255.327 297.445 255.3C297.487 255.274 297.533 255.256 297.581 255.248C297.63 255.239 297.679 255.24 297.727 255.251C297.775 255.262 297.82 255.283 297.86 255.312C299.522 256.63 300.893 258.279 301.884 260.155C302.876 262.031 303.467 264.092 303.62 266.208C303.628 266.309 303.597 266.408 303.532 266.486C303.467 266.563 303.375 266.612 303.274 266.622L303.244 266.599Z" fill="white"/>
<path d="M302.018 271.028C301.927 271.029 301.839 270.997 301.77 270.938C301.695 270.872 301.65 270.778 301.643 270.679C301.636 270.579 301.668 270.48 301.732 270.404C301.913 270.194 306.357 265.291 316.772 266.592C316.871 266.605 316.961 266.656 317.021 266.735C317.082 266.814 317.109 266.914 317.096 267.013C317.083 267.112 317.031 267.202 316.953 267.264C316.874 267.326 316.774 267.354 316.675 267.344C306.673 266.088 302.334 270.855 302.289 270.9C302.255 270.939 302.213 270.97 302.167 270.992C302.12 271.014 302.07 271.026 302.018 271.028Z" fill="white"/>
<path d="M246.295 329.211L149.016 273.044C142.151 269.081 136.586 258.447 136.586 249.296V40.9915C136.586 31.8397 142.151 27.636 149.016 31.599L246.295 87.7659C253.161 91.729 258.726 102.362 258.726 111.514V319.818C258.726 328.962 253.161 333.174 246.295 329.211Z" fill="#455A64"/>
<path d="M257.5 81.216L160.214 25.0492C157.281 23.3572 154.589 23.1616 152.46 24.1994C152.2 24.3299 151.949 24.4781 151.708 24.6431L140.804 30.9824C143 29.6664 145.873 29.7642 149.024 31.584L246.303 87.7509C253.168 91.714 258.733 102.347 258.733 111.499V319.803C258.733 324.646 257.176 328.075 254.695 329.699L265.456 323.435C268.201 321.976 269.968 318.404 269.968 313.283V104.979C269.968 95.8124 264.366 85.1791 257.5 81.216Z" fill="#37474F"/>
<path d="M258.726 111.499V319.803C258.726 324.646 257.169 328.075 254.687 329.699L265.456 323.435C268.201 321.976 269.968 318.404 269.968 313.283V104.979L258.763 111.484L258.726 111.499Z" fill="#263238"/>
<path d="M269.93 121.14L258.726 127.607V132.66L269.93 126.186V121.14Z" fill="#37474F"/>
<path d="M265.02 154.747C264.02 155.326 263.208 154.709 263.208 153.378V142.512C263.218 141.832 263.387 141.165 263.702 140.563C264.016 139.961 264.468 139.441 265.02 139.045C266.02 138.466 266.832 139.045 266.832 140.413V151.28C266.822 151.959 266.653 152.627 266.338 153.229C266.023 153.831 265.572 154.351 265.02 154.747Z" fill="#37474F"/>
<path d="M263.2 153.408V142.512C263.21 141.832 263.379 141.165 263.694 140.563C264.009 139.961 264.46 139.441 265.012 139.045C265.177 138.929 265.369 138.859 265.57 138.841C265.77 138.822 265.972 138.856 266.155 138.94L264.794 138.24C264.608 138.151 264.402 138.112 264.196 138.128C263.99 138.143 263.791 138.213 263.621 138.33C263.069 138.726 262.616 139.246 262.3 139.848C261.984 140.45 261.813 141.117 261.801 141.797V152.656C261.773 152.93 261.815 153.207 261.923 153.461C262.03 153.715 262.201 153.937 262.418 154.107L263.839 154.859C263.613 154.696 263.434 154.476 263.322 154.221C263.21 153.966 263.168 153.685 263.2 153.408Z" fill="#455A64"/>
<path d="M265.02 181.044C264.02 181.623 263.208 181.044 263.208 179.675V168.809C263.218 168.13 263.388 167.463 263.702 166.861C264.017 166.259 264.468 165.739 265.02 165.342C266.02 164.763 266.832 165.342 266.832 166.718V177.577C266.823 178.257 266.654 178.925 266.34 179.527C266.025 180.129 265.573 180.649 265.02 181.044Z" fill="#37474F"/>
<path d="M263.2 179.675V168.809C263.211 168.13 263.38 167.463 263.695 166.861C264.01 166.259 264.461 165.739 265.012 165.342C265.178 165.229 265.37 165.16 265.57 165.141C265.77 165.123 265.972 165.156 266.155 165.237L264.794 164.53C264.609 164.437 264.402 164.396 264.195 164.411C263.988 164.427 263.79 164.5 263.621 164.62C263.067 165.015 262.614 165.535 262.298 166.137C261.982 166.739 261.812 167.407 261.801 168.087V178.976C261.772 179.25 261.814 179.528 261.922 179.782C262.03 180.035 262.2 180.258 262.418 180.427L263.839 181.179C263.604 181.013 263.419 180.784 263.306 180.518C263.193 180.252 263.157 179.961 263.2 179.675Z" fill="#455A64"/>
<path d="M242.896 93.6089L147.302 38.3971C146.903 38.1676 146.451 38.0464 145.99 38.0455C145.53 38.0447 145.078 38.1642 144.678 38.3922C144.278 38.6203 143.945 38.9489 143.711 39.3455C143.478 39.7421 143.352 40.1929 143.346 40.6531V249.296C143.346 256.259 148.287 264.809 154.318 268.291L247.566 322.157C248.008 322.411 248.509 322.545 249.02 322.545C249.53 322.544 250.031 322.41 250.473 322.154C250.915 321.899 251.282 321.532 251.537 321.091C251.792 320.649 251.927 320.148 251.928 319.638V109.273C251.965 103.528 247.889 96.4816 242.896 93.6089Z" fill="#00A4FF"/>
<path opacity="0.9" d="M242.896 93.6089L147.302 38.3971C146.903 38.1676 146.451 38.0464 145.99 38.0455C145.53 38.0447 145.078 38.1642 144.678 38.3922C144.278 38.6203 143.945 38.9489 143.711 39.3455C143.478 39.7421 143.352 40.1929 143.346 40.6531V249.296C143.346 256.259 148.287 264.809 154.318 268.291L247.566 322.157C248.008 322.411 248.509 322.545 249.02 322.545C249.53 322.544 250.031 322.41 250.473 322.154C250.915 321.899 251.282 321.532 251.537 321.091C251.792 320.649 251.927 320.148 251.928 319.638V109.273C251.965 103.528 247.889 96.4816 242.896 93.6089Z" fill="white"/>
<path d="M175.893 52.813L177.374 59.0471L209.064 77.3207L214.538 74.4029L175.893 52.813Z" fill="#455A64"/>
<path d="M185.21 58.8365C185.21 59.8743 184.458 60.2879 183.586 59.7765C183.117 59.4656 182.729 59.0492 182.45 58.5607C182.172 58.0723 182.012 57.5254 181.984 56.964C181.984 55.9338 182.736 55.5127 183.608 56.0315C184.076 56.3408 184.465 56.7558 184.744 57.2431C185.022 57.7303 185.182 58.2761 185.21 58.8365Z" fill="#263238"/>
<path d="M206.559 72.0341C206.386 72.0327 206.216 71.9889 206.063 71.9063L189.88 62.8823C189.652 62.7481 189.485 62.5299 189.415 62.2743C189.345 62.0186 189.378 61.7459 189.506 61.5142C189.635 61.2825 189.849 61.1103 190.103 61.0343C190.357 60.9584 190.63 60.9846 190.865 61.1076L207.056 70.1316C207.252 70.241 207.407 70.4127 207.496 70.6197C207.584 70.8267 207.602 71.0573 207.545 71.2752C207.488 71.4931 207.36 71.6859 207.182 71.8233C207.004 71.9607 206.785 72.0348 206.559 72.0341Z" fill="#263238"/>
<path d="M163.395 81.8176C162.409 81.2461 161.695 81.7424 161.695 82.9983C161.695 83.6263 161.85 84.2446 162.147 84.7982C162.443 85.3518 162.872 85.8236 163.395 86.1717C163.675 86.3417 163.996 86.4315 164.323 86.4315C164.651 86.4315 164.972 86.3417 165.252 86.1717L166.824 89.0143C166.271 89.3194 165.644 89.4648 165.013 89.4342C164.382 89.4037 163.773 89.1984 163.252 88.8413C161.975 88.0601 160.91 86.9762 160.152 85.6856C159.394 84.3949 158.966 82.9373 158.905 81.4416C158.905 78.6517 160.778 77.6816 163.357 79.1856C164.814 80.1236 166.007 81.4178 166.824 82.9456L165.252 84.194C164.864 83.2454 164.221 82.4228 163.395 81.8176Z" fill="#00A4FF"/>
<path d="M175.87 91.2402C175.87 94.0527 173.968 95.0002 171.358 93.4962C170.045 92.7114 168.946 91.6142 168.159 90.3023C167.372 88.9904 166.921 87.5043 166.846 85.9762C166.846 83.1637 168.749 82.2162 171.358 83.7202C172.675 84.5015 173.776 85.5978 174.564 86.9104C175.351 88.2231 175.8 89.711 175.87 91.2402ZM169.636 87.6532C169.649 88.2988 169.816 88.9321 170.122 89.5009C170.428 90.0696 170.864 90.5575 171.396 90.9244C172.328 91.4658 173.08 90.9244 173.08 89.646C173.078 89.0149 172.923 88.3936 172.63 87.8347C172.337 87.2759 171.914 86.7957 171.396 86.4349C170.448 85.886 169.636 86.3522 169.636 87.6532Z" fill="#00A4FF"/>
<path d="M178.901 88.2548L182.149 95.0228V90.1498L184.608 91.5711V101.054L182.352 99.7453L179.119 93.0375V97.8804L176.645 96.4516V86.9463L178.901 88.2548Z" fill="#00A4FF"/>
<path d="M192.647 96.1884V98.67L190.301 97.3164V104.325L187.586 102.753V95.7447L185.255 94.3986V91.9246L192.647 96.1884Z" fill="#00A4FF"/>
<path d="M197.941 107.393L194.858 105.611L194.437 106.709L191.655 105.1L195.121 97.6172L197.911 99.2265L201.25 110.642L198.355 108.972L197.941 107.393ZM197.272 104.761L196.43 101.52L195.565 103.776L197.272 104.761Z" fill="#00A4FF"/>
<path d="M205.559 106.16C204.574 105.596 203.86 106.085 203.86 107.348C203.861 107.976 204.017 108.594 204.313 109.147C204.609 109.7 205.037 110.172 205.559 110.522C205.841 110.69 206.163 110.779 206.492 110.779C206.82 110.779 207.142 110.69 207.424 110.522L208.996 113.364C208.441 113.666 207.813 113.809 207.182 113.779C206.551 113.748 205.94 113.545 205.416 113.191C204.138 112.409 203.073 111.324 202.315 110.032C201.557 108.74 201.129 107.281 201.07 105.784C201.07 102.994 202.95 102.024 205.522 103.528C206.976 104.47 208.171 105.763 208.996 107.288L207.424 108.529C207.028 107.585 206.383 106.766 205.559 106.16Z" fill="#00A4FF"/>
<path d="M216.411 109.912V112.386L214.064 111.033V118.064L211.35 116.492V109.484L209.018 108.138V105.664L216.411 109.912Z" fill="#00A4FF"/>
<path d="M224.434 121.553C225.104 121.937 225.615 121.636 225.615 120.696V115.229L228.337 116.793V122.26C228.337 124.779 226.833 125.531 224.427 124.155C223.268 123.511 222.293 122.581 221.596 121.452C220.9 120.324 220.505 119.035 220.449 117.711V112.244L223.171 113.815V119.282C223.182 119.735 223.302 120.178 223.522 120.574C223.742 120.97 224.055 121.306 224.434 121.553Z" fill="#00A4FF"/>
<path d="M232.721 121.583C232.413 121.41 232.218 121.403 232.218 121.689C232.218 122.877 236.466 124.591 236.466 128.028C236.466 130.134 234.865 130.141 233.015 129.073C231.389 128.077 229.988 126.753 228.901 125.185L229.909 123.411C230.736 124.691 231.797 125.803 233.037 126.689C233.436 126.923 233.692 126.923 233.692 126.584C233.692 125.351 229.435 123.712 229.435 120.38C229.435 118.485 230.819 118.124 232.955 119.327C234.33 120.159 235.541 121.238 236.527 122.508L235.541 124.328C234.728 123.292 233.779 122.369 232.721 121.583Z" fill="#00A4FF"/>
<path d="M149.716 128.547C152.767 124.799 154.303 120.044 154.02 115.22C153.738 110.396 151.658 105.853 148.19 102.487C144.722 99.1209 140.119 97.1768 135.289 97.0382C130.458 96.8996 125.751 98.5765 122.096 101.738C118.441 104.899 116.104 109.316 115.545 114.116C114.987 118.916 116.247 123.751 119.079 127.668C121.91 131.584 126.106 134.297 130.839 135.271C135.573 136.246 140.499 135.411 144.647 132.931L154.062 137.022L149.716 128.547Z" fill="#00A4FF"/>
<path opacity="0.4" d="M149.716 128.547C152.767 124.799 154.303 120.044 154.02 115.22C153.738 110.396 151.658 105.853 148.19 102.487C144.722 99.1209 140.119 97.1768 135.289 97.0382C130.458 96.8996 125.751 98.5765 122.096 101.738C118.441 104.899 116.104 109.316 115.545 114.116C114.987 118.916 116.247 123.751 119.079 127.668C121.91 131.584 126.106 134.297 130.839 135.271C135.573 136.246 140.499 135.411 144.647 132.931L154.062 137.022L149.716 128.547Z" fill="black"/>
<path d="M127.577 115.312C127.577 115.018 127.366 114.853 126.983 114.853C126.093 114.97 125.262 115.361 124.606 115.973L123.539 113.898C124.663 113.052 126.02 112.574 127.426 112.529C129.231 112.529 130.6 113.477 130.6 114.891C130.6 115.898 129.848 116.868 128.885 117.838L127.539 119.169H130.72V121.38H123.884V119.568L126.93 116.417C127.258 116.127 127.485 115.74 127.577 115.312Z" fill="white"/>
<path d="M136.285 112.657L134.209 117.635H135.059V115.958H137.676V117.635H138.669V119.688H137.676V121.38H135.059V119.688H131.337V117.823L133.593 112.657H136.285Z" fill="white"/>
<path d="M146.745 117.041V121.38H143.948V117.846C143.964 117.731 143.955 117.614 143.922 117.502C143.889 117.391 143.833 117.288 143.756 117.2C143.68 117.112 143.586 117.042 143.48 116.994C143.374 116.946 143.259 116.921 143.143 116.921C142.594 116.921 142.248 117.35 142.248 118.011V121.38H139.451V112.161H142.248V115.552C142.467 115.206 142.772 114.923 143.133 114.731C143.495 114.538 143.9 114.443 144.309 114.454C144.644 114.446 144.977 114.508 145.287 114.637C145.597 114.766 145.876 114.959 146.106 115.203C146.335 115.447 146.511 115.737 146.622 116.054C146.732 116.371 146.774 116.707 146.745 117.041Z" fill="white"/>
<path d="M237.963 186.917V280.353C237.964 281.41 237.688 282.449 237.16 283.364C236.633 284.28 235.874 285.041 234.959 285.57C234.044 286.099 233.006 286.378 231.949 286.378C230.892 286.378 229.854 286.1 228.939 285.572L178.615 256.515L169.696 251.371C166.625 249.595 164.074 247.045 162.298 243.974C160.521 240.903 159.582 237.42 159.574 233.872V140.429C159.573 139.372 159.85 138.333 160.377 137.417C160.904 136.502 161.664 135.741 162.579 135.212C163.493 134.683 164.531 134.404 165.588 134.404C166.645 134.403 167.683 134.681 168.598 135.21L227.856 169.418C230.928 171.191 233.48 173.742 235.254 176.813C237.028 179.885 237.963 183.37 237.963 186.917Z" fill="#00A4FF"/>
<path opacity="0.5" d="M237.963 186.917V280.353C237.964 281.41 237.688 282.449 237.16 283.364C236.633 284.28 235.874 285.041 234.959 285.57C234.044 286.099 233.006 286.378 231.949 286.378C230.892 286.378 229.854 286.1 228.939 285.572L178.615 256.515L169.696 251.371C166.625 249.595 164.074 247.045 162.298 243.974C160.521 240.903 159.582 237.42 159.574 233.872V140.429C159.573 139.372 159.85 138.333 160.377 137.417C160.904 136.502 161.664 135.741 162.579 135.212C163.493 134.683 164.531 134.404 165.588 134.404C166.645 134.403 167.683 134.681 168.598 135.21L227.856 169.418C230.928 171.191 233.48 173.742 235.254 176.813C237.028 179.885 237.963 183.37 237.963 186.917Z" fill="white"/>
<path d="M208.973 242.204C208.973 242.204 218.396 257.831 211.59 275.45L178.592 256.515L208.973 242.204Z" fill="#263238"/>
<path d="M224 171.995C224.713 166.204 220.597 160.931 214.805 160.218C209.014 159.505 203.741 163.621 203.027 169.413C202.314 175.204 206.431 180.477 212.222 181.191C218.014 181.904 223.287 177.787 224 171.995Z" fill="#263238"/>
<path d="M213.568 141.068C213.568 141.068 216.809 135.804 217.802 136.187C218.794 136.571 217.155 141.587 217.155 141.587C217.155 141.587 222.058 142.609 221.148 143.843C220.238 145.076 214.245 144.783 214.245 144.783L213.568 141.068Z" fill="#263238"/>
<path d="M215.824 154.634C213.568 171.584 199.28 171.584 199.28 171.584L169.35 158.409C169.35 158.409 167.094 156.431 166.403 151.889C166.137 150.029 166.137 148.14 166.403 146.279C166.403 146.279 166.403 146.242 166.403 146.227C167.358 139.098 172.689 131.435 184.3 129.081C186.845 128.567 189.435 128.315 192.031 128.329C193.287 128.324 194.542 128.387 195.791 128.517C204.815 129.404 211.139 133.615 214.155 140.165C214.833 141.644 215.338 143.196 215.659 144.79C216.271 148.038 216.327 151.367 215.824 154.634Z" fill="#263238"/>
<path d="M143.97 187.421C143.97 187.421 133.345 187.053 129.254 197.408C129.254 197.408 133.766 200.453 139.684 197.408C145.602 194.362 143.97 187.421 143.97 187.421Z" fill="#00A4FF"/>
<path opacity="0.5" d="M143.97 187.421C143.97 187.421 133.345 187.053 129.254 197.408C129.254 197.408 133.766 200.453 139.684 197.408C145.602 194.362 143.97 187.421 143.97 187.421Z" fill="black"/>
<path d="M143.67 192.407C143.67 192.407 140.662 179.337 139.075 179.179C137.488 179.021 137.18 183.165 137.308 185.503L133.548 177.412C133.428 177.16 133.259 176.936 133.05 176.753C132.84 176.569 132.596 176.431 132.331 176.345C132.066 176.26 131.786 176.23 131.509 176.257C131.232 176.284 130.964 176.367 130.72 176.502C126.96 178.57 120.365 184.857 134.27 200.401L143.67 192.407Z" fill="#945959"/>
<path d="M182.172 183.368L179.916 183.075C177.642 182.773 175.33 183.082 173.215 183.97C171.1 184.858 169.26 186.293 167.884 188.128L154.461 205.995L143.933 187.421C143.933 187.421 142.669 200.055 129.216 197.408L143.662 221.72C144.576 223.259 145.849 224.554 147.371 225.496C148.894 226.438 150.621 226.998 152.407 227.129C154.192 227.259 155.983 226.957 157.626 226.247C159.269 225.537 160.717 224.44 161.845 223.051L174.208 207.853L182.172 183.368Z" fill="#00A4FF"/>
<path d="M210.823 225.066C207.815 232.691 207.484 234.18 209.319 237.993C210.597 240.809 211.604 243.74 212.327 246.746C212.327 246.746 198.385 262.373 178.54 256.522L169.621 251.379C167.766 250.309 166.096 248.948 164.673 247.348L167.388 227.104C167.524 226.038 167.416 224.956 167.072 223.938L164.222 215.583C162.831 211.503 162.624 207.112 163.625 202.918C164.626 198.725 166.793 194.901 169.877 191.888L179.457 182.526L204.619 185.744L208.379 186.819C210.841 187.531 212.963 189.108 214.355 191.259C215.748 193.41 216.317 195.991 215.959 198.528C214.726 207.402 212.711 220.276 210.823 225.066Z" fill="#00A4FF"/>
<path opacity="0.5" d="M210.823 225.066C207.815 232.691 207.484 234.18 209.319 237.993C210.597 240.809 211.604 243.74 212.327 246.746C212.327 246.746 198.385 262.373 178.54 256.522L169.621 251.379C167.766 250.309 166.096 248.948 164.673 247.348L167.388 227.104C167.524 226.038 167.416 224.956 167.072 223.938L164.222 215.583C162.831 211.503 162.624 207.112 163.625 202.918C164.626 198.725 166.793 194.901 169.877 191.888L179.457 182.526L204.619 185.744L208.379 186.819C210.841 187.531 212.963 189.108 214.355 191.259C215.748 193.41 216.317 195.991 215.959 198.528C214.726 207.402 212.711 220.276 210.823 225.066Z" fill="black"/>
<path d="M195.648 202.288L190.609 197.994C190.076 197.538 189.432 197.228 188.743 197.096C188.053 196.965 187.341 197.015 186.677 197.242L180.585 199.34L179.766 195.926C179.638 195.395 179.404 194.895 179.077 194.457C178.751 194.019 178.339 193.651 177.867 193.377C177.395 193.102 176.872 192.926 176.33 192.858C175.787 192.791 175.237 192.835 174.712 192.986L172.073 193.738L176.54 185.18C177.998 182.393 180.245 180.097 182.999 178.578L184.751 177.615L199.227 178.367C199.227 178.367 204.619 180.623 204.619 185.699L195.648 202.243" fill="#00A4FF"/>
<path d="M199.288 184.781L184.774 196.092V160.078H199.288V184.781Z" fill="#945959"/>
<path d="M185 181.811L180.585 199.37L199.227 184.781L185 181.811Z" fill="#945959"/>
<path d="M184.774 179.202C188.001 178.003 190.951 176.161 193.445 173.788C195.939 171.415 197.924 168.559 199.28 165.395V160.078H184.766L184.774 179.202Z" fill="#703838"/>
<path d="M187.902 133.39C182.398 133.39 170.696 136.458 169.343 150.866C167.989 165.275 169.298 176.434 176.728 177.517C184.157 178.6 201.423 173.208 203.739 154.559C206.056 135.909 193.264 133.39 187.902 133.39Z" fill="#945959"/>
<path d="M179.239 156.965V165.455L174.261 163.928L179.239 156.965Z" fill="#703838"/>
<path d="M184.774 160.161C185.729 160.161 186.504 159.387 186.504 158.431C186.504 157.476 185.729 156.702 184.774 156.702C183.819 156.702 183.044 157.476 183.044 158.431C183.044 159.387 183.819 160.161 184.774 160.161Z" fill="#263238"/>
<path d="M175.118 157.228C175.117 157.57 175.014 157.904 174.823 158.187C174.632 158.471 174.362 158.691 174.045 158.821C173.729 158.951 173.382 158.984 173.047 158.916C172.712 158.849 172.404 158.683 172.163 158.441C171.922 158.199 171.758 157.891 171.692 157.555C171.626 157.22 171.66 156.873 171.791 156.557C171.923 156.241 172.144 155.972 172.429 155.782C172.713 155.592 173.047 155.491 173.389 155.491C173.616 155.491 173.842 155.536 174.052 155.623C174.263 155.711 174.454 155.839 174.614 156C174.775 156.162 174.902 156.353 174.989 156.564C175.075 156.775 175.119 157 175.118 157.228Z" fill="#263238"/>
<path d="M171.276 153.619L174.66 151.611C174.66 151.611 173.366 150.265 172.073 151.069C170.779 151.874 171.276 153.619 171.276 153.619Z" fill="#263238"/>
<path d="M176.9 168.899C178.548 169.019 180.189 168.58 181.555 167.651C181.555 167.651 181.879 170.11 179.818 170.576C177.758 171.042 176.9 168.899 176.9 168.899Z" fill="#703838"/>
<path d="M173.945 138.293C173.945 138.293 176.013 158.183 203.063 158.807C203.063 158.807 211.237 139.037 195.084 132.615C178.931 126.193 173.945 138.293 173.945 138.293Z" fill="#263238"/>
<path d="M211.026 155.829L207.702 153.904C206.439 153.152 204.694 153.258 202.762 154.371C198.927 156.581 195.813 161.973 195.813 166.403C195.813 168.621 196.565 170.163 197.859 170.915L201.122 172.795L201.31 172.9L201.423 172.968C202.656 173.569 204.303 173.426 206.116 172.381C209.951 170.125 213.064 164.778 213.064 160.349C213.042 158.108 212.267 156.559 211.026 155.829Z" fill="#00A4FF"/>
<path d="M211 167.156C213.712 162.459 213.712 157.382 211 155.816C208.288 154.25 203.891 156.789 201.179 161.486C198.467 166.183 198.467 171.261 201.179 172.826C203.891 174.392 208.288 171.854 211 167.156Z" fill="#00A4FF"/>
<path opacity="0.5" d="M211 167.156C213.712 162.459 213.712 157.382 211 155.816C208.288 154.25 203.891 156.789 201.179 161.486C198.467 166.183 198.467 171.261 201.179 172.826C203.891 174.392 208.288 171.854 211 167.156Z" fill="black"/>
<path d="M212.357 160.003L210.101 158.687C209.244 158.176 208.048 158.243 206.725 159.003C205.342 159.906 204.192 161.123 203.366 162.553C202.54 163.984 202.063 165.588 201.972 167.237C201.972 168.741 202.506 169.817 203.371 170.313L205.627 171.599C205.667 171.628 205.71 171.653 205.755 171.674L205.83 171.719C206.359 171.92 206.929 171.988 207.49 171.917C208.051 171.846 208.586 171.639 209.048 171.313C210.43 170.41 211.58 169.195 212.406 167.766C213.231 166.337 213.709 164.734 213.801 163.086C213.741 161.56 213.215 160.499 212.357 160.003Z" fill="#00A4FF"/>
<path d="M213.741 163.071C213.649 164.719 213.171 166.322 212.345 167.751C211.52 169.18 210.37 170.395 208.988 171.298C206.356 172.802 204.228 171.584 204.228 168.553C204.317 166.904 204.795 165.299 205.622 163.869C206.449 162.44 207.603 161.226 208.988 160.326C211.613 158.807 213.741 160.033 213.741 163.071Z" fill="#00A4FF"/>
<path opacity="0.3" d="M213.741 163.071C213.649 164.719 213.171 166.322 212.345 167.751C211.52 169.18 210.37 170.395 208.988 171.298C206.356 172.802 204.228 171.584 204.228 168.553C204.317 166.904 204.795 165.299 205.622 163.869C206.449 162.44 207.603 161.226 208.988 160.326C211.613 158.807 213.741 160.033 213.741 163.071Z" fill="black"/>
<path d="M200.701 129.509C198.545 127.844 195.905 126.928 193.181 126.9H192.512C189.754 126.87 187 127.122 184.293 127.652C184.789 127.652 185.285 127.652 185.797 127.652H184.293V129.051H185.691C190.512 129.215 195.08 131.247 198.43 134.717C201.779 138.188 203.648 142.824 203.642 147.648V153.566C203.641 153.8 203.69 154.031 203.785 154.245C203.88 154.459 204.019 154.65 204.193 154.807C204.367 154.964 204.571 155.082 204.794 155.155C205.016 155.227 205.251 155.252 205.484 155.228H205.657L207.161 154.762C207.061 154.793 206.957 154.813 206.853 154.822C207.301 154.761 207.711 154.537 208.005 154.193C208.299 153.849 208.457 153.409 208.447 152.957V147.467C208.432 137.533 204.138 132.194 200.701 129.509Z" fill="#00A4FF"/>
<path d="M191.234 177.104C190.613 177.104 190 176.97 189.436 176.713L184.736 174.539C184.663 174.513 184.596 174.472 184.539 174.418C184.482 174.364 184.437 174.3 184.407 174.228C184.376 174.156 184.361 174.078 184.362 174C184.363 173.922 184.381 173.845 184.413 173.774C184.445 173.703 184.492 173.64 184.55 173.588C184.609 173.536 184.677 173.496 184.751 173.472C184.825 173.448 184.904 173.439 184.982 173.447C185.059 173.455 185.135 173.478 185.203 173.517L189.903 175.69C190.502 175.969 191.173 176.053 191.823 175.932C192.473 175.811 193.069 175.489 193.527 175.013L198.039 170.351C198.145 170.245 198.288 170.186 198.438 170.186C198.587 170.186 198.731 170.245 198.836 170.351C198.94 170.457 198.998 170.6 198.998 170.749C198.998 170.898 198.94 171.041 198.836 171.148L194.324 175.81C193.923 176.223 193.442 176.55 192.911 176.772C192.38 176.994 191.809 177.107 191.234 177.104Z" fill="#00A4FF"/>
<path opacity="0.5" d="M191.234 177.104C190.613 177.104 190 176.97 189.436 176.713L184.736 174.539C184.663 174.513 184.596 174.472 184.539 174.418C184.482 174.364 184.437 174.3 184.407 174.228C184.376 174.156 184.361 174.078 184.362 174C184.363 173.922 184.381 173.845 184.413 173.774C184.445 173.703 184.492 173.64 184.55 173.588C184.609 173.536 184.677 173.496 184.751 173.472C184.825 173.448 184.904 173.439 184.982 173.447C185.059 173.455 185.135 173.478 185.203 173.517L189.903 175.69C190.502 175.969 191.173 176.053 191.823 175.932C192.473 175.811 193.069 175.489 193.527 175.013L198.039 170.351C198.145 170.245 198.288 170.186 198.438 170.186C198.587 170.186 198.731 170.245 198.836 170.351C198.94 170.457 198.998 170.6 198.998 170.749C198.998 170.898 198.94 171.041 198.836 171.148L194.324 175.81C193.923 176.223 193.442 176.55 192.911 176.772C192.38 176.994 191.809 177.107 191.234 177.104Z" fill="black"/>
<path d="M185.97 172.96C185.97 173.394 185.841 173.819 185.6 174.18C185.358 174.541 185.015 174.822 184.614 174.989C184.213 175.155 183.771 175.198 183.345 175.114C182.919 175.029 182.528 174.82 182.221 174.513C181.914 174.206 181.705 173.814 181.62 173.388C181.535 172.962 181.579 172.521 181.745 172.12C181.911 171.718 182.193 171.376 182.554 171.134C182.915 170.893 183.339 170.764 183.774 170.764C184.356 170.764 184.915 170.996 185.326 171.407C185.738 171.819 185.97 172.378 185.97 172.96Z" fill="#00A4FF"/>
<path opacity="0.5" d="M185.97 172.96C185.97 173.394 185.841 173.819 185.6 174.18C185.358 174.541 185.015 174.822 184.614 174.989C184.213 175.155 183.771 175.198 183.345 175.114C182.919 175.029 182.528 174.82 182.221 174.513C181.914 174.206 181.705 173.814 181.62 173.388C181.535 172.962 181.579 172.521 181.745 172.12C181.911 171.718 182.193 171.376 182.554 171.134C182.915 170.893 183.339 170.764 183.774 170.764C184.356 170.764 184.915 170.996 185.326 171.407C185.738 171.819 185.97 172.378 185.97 172.96Z" fill="black"/>
<path d="M208.432 147.467V152.957C208.442 153.409 208.284 153.849 207.99 154.193C207.696 154.537 207.286 154.761 206.838 154.822C206.59 154.848 206.339 154.822 206.102 154.745C205.865 154.668 205.647 154.543 205.462 154.376C205.277 154.209 205.129 154.005 205.028 153.778C204.927 153.55 204.875 153.304 204.875 153.055V147.467C204.879 144.801 204.344 142.161 203.301 139.706C202.259 137.252 200.73 135.034 198.808 133.185C196.886 131.337 194.61 129.897 192.117 128.951C189.623 128.005 186.965 127.574 184.3 127.682C187.007 127.152 189.761 126.9 192.52 126.93H193.174C195.898 126.958 198.538 127.874 200.694 129.54C204.138 132.194 208.432 137.533 208.432 147.467Z" fill="#00A4FF"/>
<path opacity="0.5" d="M208.432 147.467V152.957C208.442 153.409 208.284 153.849 207.99 154.193C207.696 154.537 207.286 154.761 206.838 154.822C206.59 154.848 206.339 154.822 206.102 154.745C205.865 154.668 205.647 154.543 205.462 154.376C205.277 154.209 205.129 154.005 205.028 153.778C204.927 153.55 204.875 153.304 204.875 153.055V147.467C204.879 144.801 204.344 142.161 203.301 139.706C202.259 137.252 200.73 135.034 198.808 133.185C196.886 131.337 194.61 129.897 192.117 128.951C189.623 128.005 186.965 127.574 184.3 127.682C187.007 127.152 189.761 126.9 192.52 126.93H193.174C195.898 126.958 198.538 127.874 200.694 129.54C204.138 132.194 208.432 137.533 208.432 147.467Z" fill="black"/>
<path d="M199.979 250.92C199.979 250.92 196.34 260.944 209.349 265.456C209.349 265.456 213.598 259.214 209.349 254.108C205.101 249.002 199.979 250.92 199.979 250.92Z" fill="#00A4FF"/>
<path opacity="0.7" d="M199.979 250.92C199.979 250.92 196.34 260.944 209.349 265.456C209.349 265.456 213.598 259.214 209.349 254.108C205.101 249.002 199.979 250.92 199.979 250.92Z" fill="black"/>
<path d="M204.544 251.379C204.544 251.379 191.835 256.034 191.903 257.838C191.971 259.643 197.302 258.41 197.302 258.41L195.355 259.688C193.304 261.027 191.715 262.964 190.805 265.238C190.607 265.739 190.6 266.296 190.786 266.803C190.971 267.309 191.337 267.729 191.813 267.983L196.64 270.54C196.913 270.684 197.212 270.773 197.519 270.8C197.827 270.827 198.137 270.792 198.43 270.698C198.724 270.603 198.996 270.45 199.23 270.249C199.463 270.047 199.654 269.801 199.791 269.524C200.061 268.993 200.432 268.52 200.885 268.132C201.338 267.745 201.864 267.452 202.431 267.268C205.055 266.396 209.951 263.884 211.914 257.011L204.544 251.379Z" fill="#945959"/>
<path d="M208.357 186.804C208.357 186.804 201.589 190.564 205.183 201.98C208.778 213.395 215.523 231.105 215.523 231.105L199.979 250.92C201.64 251.12 203.24 251.668 204.674 252.529C206.109 253.389 207.345 254.542 208.304 255.913C209.222 257.307 209.796 258.899 209.978 260.558C210.159 262.218 209.944 263.896 209.349 265.456L228.646 240.64C230.43 238.347 231.615 235.645 232.093 232.778C232.571 229.912 232.327 226.972 231.383 224.224L223.111 200.07C222.1 197.119 220.419 194.443 218.202 192.25C215.984 190.056 213.289 188.406 210.327 187.428L208.357 186.804Z" fill="#00A4FF"/>
<path d="M94.1128 119.373L64.2057 102.077C63.8616 101.838 63.4634 101.689 63.0471 101.643C62.6309 101.597 62.2098 101.656 61.8219 101.813C61.7401 101.851 61.6621 101.896 61.5888 101.949L55.084 105.761H55.1291C54.3094 106.228 53.7905 107.31 53.7905 108.86V142.128C53.7905 144.941 55.4976 148.212 57.6107 149.43L87.5177 166.726C87.8972 167 88.3489 167.157 88.8168 167.177C89.2847 167.198 89.7482 167.08 90.1497 166.839C90.1294 166.847 90.1113 166.86 90.0971 166.876L96.5568 163.116C97.399 162.665 97.9329 161.567 97.9329 159.996V126.674C97.9329 123.862 96.256 120.591 94.1128 119.373Z" fill="#00A4FF"/>
<path d="M96.8651 122.523C96.26 121.237 95.3066 120.145 94.1128 119.373L64.2057 102.077C63.8616 101.838 63.4634 101.689 63.0472 101.643C62.6309 101.597 62.2098 101.656 61.8219 101.813C61.7401 101.851 61.6621 101.896 61.5888 101.949L55.084 105.761C55.4819 105.558 55.9281 105.468 56.3737 105.501C56.8193 105.534 57.2473 105.689 57.6107 105.949L87.5177 123.245C88.7522 124.052 89.7305 125.195 90.3377 126.539L96.8651 122.523Z" fill="#00A4FF"/>
<path d="M91.3379 163.801C91.3379 165.305 90.8566 166.35 90.0971 166.809L96.5568 163.049C97.399 162.597 97.9329 161.499 97.9329 159.928V126.674C97.9012 125.227 97.5357 123.806 96.8651 122.523L90.3377 126.539C90.9645 127.784 91.3061 129.153 91.3379 130.547V163.801Z" fill="#00A4FF"/>
<path opacity="0.3" d="M96.8651 122.523C96.26 121.237 95.3066 120.145 94.1128 119.373L64.2057 102.077C63.8616 101.838 63.4634 101.689 63.0472 101.643C62.6309 101.597 62.2098 101.656 61.8219 101.813C61.7401 101.851 61.6621 101.896 61.5888 101.949L55.084 105.761C55.4819 105.558 55.9281 105.468 56.3737 105.501C56.8193 105.534 57.2473 105.689 57.6107 105.949L87.5177 123.245C88.7522 124.052 89.7305 125.195 90.3377 126.539L96.8651 122.523Z" fill="black"/>
<path opacity="0.6" d="M91.3379 163.801C91.3379 165.305 90.8566 166.35 90.0971 166.809L96.5568 163.049C97.399 162.597 97.9329 161.499 97.9329 159.928V126.674C97.9012 125.227 97.5357 123.806 96.8651 122.523L90.3377 126.539C90.9645 127.784 91.3061 129.153 91.3379 130.547V163.801Z" fill="black"/>
<path d="M82.5696 140.075C82.5696 144.384 80.8626 145.85 78.3058 144.369C77.6004 143.967 76.9837 143.427 76.4926 142.781C76.0015 142.135 75.6462 141.396 75.4482 140.609C74.6962 141.534 73.5306 141.594 71.8912 140.647C69.199 139.09 67.0784 135.383 67.0784 131.781C67.0784 128.178 69.1765 126.938 71.8912 128.502C73.2687 129.314 74.3815 130.507 75.0947 131.938V130.517L77.9298 132.157V139.947C77.8875 140.357 77.9584 140.771 78.1348 141.143C78.3111 141.516 78.5861 141.833 78.9299 142.06C79.885 142.617 80.4715 141.677 80.4715 138.887C80.4715 134.006 77.3432 128.833 72.7184 126.163C68.0936 123.493 64.9728 125.351 64.9728 130.374C65.0334 133.04 65.7679 135.647 67.1078 137.952C68.4477 140.257 70.3494 142.185 72.6357 143.557C73.877 144.321 75.2867 144.771 76.7416 144.865L77.4109 147.46C75.7168 147.323 74.0798 146.784 72.6357 145.888C66.6197 142.406 62.6416 135.398 62.6416 129.051C62.6416 122.704 66.6573 120.403 72.7184 123.907C78.5765 127.284 82.5696 134.044 82.5696 140.075ZM75.1398 136.458C75.1545 135.504 74.9218 134.563 74.4645 133.726C74.0072 132.89 73.3408 132.185 72.5304 131.683C71.0264 130.803 69.951 131.42 69.951 133.465C69.9317 134.42 70.1589 135.364 70.6107 136.206C71.0625 137.048 71.7237 137.759 72.5304 138.27C74.0344 139.12 75.1398 138.571 75.1398 136.458Z" fill="#00A4FF"/>
<g opacity="0.9">
<path d="M82.5696 140.075C82.5696 144.384 80.8626 145.85 78.3058 144.369C77.6004 143.967 76.9837 143.427 76.4926 142.781C76.0015 142.135 75.6462 141.396 75.4482 140.609C74.6962 141.534 73.5306 141.594 71.8912 140.647C69.199 139.09 67.0784 135.383 67.0784 131.781C67.0784 128.178 69.1765 126.938 71.8912 128.502C73.2687 129.314 74.3815 130.507 75.0947 131.938V130.517L77.9298 132.157V139.947C77.8875 140.357 77.9584 140.771 78.1348 141.143C78.3111 141.516 78.5861 141.833 78.9299 142.06C79.885 142.617 80.4715 141.677 80.4715 138.887C80.4715 134.006 77.3432 128.833 72.7184 126.163C68.0936 123.493 64.9728 125.351 64.9728 130.374C65.0334 133.04 65.7679 135.647 67.1078 137.952C68.4477 140.257 70.3494 142.185 72.6357 143.557C73.877 144.321 75.2867 144.771 76.7416 144.865L77.4109 147.46C75.7168 147.323 74.0798 146.784 72.6357 145.888C66.6197 142.406 62.6416 135.398 62.6416 129.051C62.6416 122.704 66.6573 120.403 72.7184 123.907C78.5765 127.284 82.5696 134.044 82.5696 140.075ZM75.1398 136.458C75.1545 135.504 74.9218 134.563 74.4645 133.726C74.0072 132.89 73.3408 132.185 72.5304 131.683C71.0264 130.803 69.951 131.42 69.951 133.465C69.9317 134.42 70.1589 135.364 70.6107 136.206C71.0625 137.048 71.7237 137.759 72.5304 138.27C74.0344 139.12 75.1398 138.571 75.1398 136.458Z" fill="white"/>
</g>
<path d="M94.1128 178.615L64.2057 161.319C63.862 161.079 63.4633 160.93 63.0466 160.885C62.6299 160.841 62.2086 160.902 61.8219 161.063C61.7401 161.101 61.6621 161.146 61.5888 161.199L55.084 165.011H55.1291C54.3094 165.478 53.7905 166.56 53.7905 168.102V201.356C53.7905 204.176 55.4976 207.439 57.6107 208.657L87.5177 225.953C87.8964 226.23 88.3483 226.388 88.8167 226.408C89.285 226.428 89.7488 226.309 90.1497 226.066L90.0971 226.111L96.5568 222.314C97.399 221.87 97.9329 220.81 97.9329 219.193V185.909C97.9329 183.097 96.256 179.833 94.1128 178.615Z" fill="#00A4FF"/>
<path d="M96.8651 181.766C96.2621 180.478 95.3082 179.386 94.1128 178.615L64.2057 161.319C63.8621 161.079 63.4634 160.93 63.0466 160.885C62.6299 160.841 62.2086 160.902 61.8219 161.063C61.7401 161.101 61.6621 161.146 61.5888 161.199L55.084 165.011C55.481 164.806 55.9269 164.714 56.3727 164.746C56.8185 164.778 57.2469 164.932 57.6107 165.192L87.5177 182.488C88.7541 183.296 89.7328 184.442 90.3377 185.789L96.8651 181.766Z" fill="#00A4FF"/>
<path d="M91.3379 223.036C91.3379 224.54 90.8566 225.585 90.0971 226.081L96.5568 222.284C97.399 221.84 97.9329 220.78 97.9329 219.163V185.909C97.9011 184.464 97.5356 183.046 96.8651 181.766L90.3377 185.782C90.9643 187.024 91.306 188.391 91.3379 189.782V223.036Z" fill="#00A4FF"/>
<path opacity="0.3" d="M96.8651 181.766C96.2621 180.478 95.3082 179.386 94.1128 178.615L64.2057 161.319C63.8621 161.079 63.4634 160.93 63.0466 160.885C62.6299 160.841 62.2086 160.902 61.8219 161.063C61.7401 161.101 61.6621 161.146 61.5888 161.199L55.084 165.011C55.481 164.806 55.9269 164.714 56.3727 164.746C56.8185 164.778 57.2469 164.932 57.6107 165.192L87.5177 182.488C88.7541 183.296 89.7328 184.442 90.3377 185.789L96.8651 181.766Z" fill="black"/>
<path opacity="0.6" d="M91.3379 223.036C91.3379 224.54 90.8566 225.585 90.0971 226.081L96.5568 222.284C97.399 221.84 97.9329 220.78 97.9329 219.163V185.909C97.9011 184.464 97.5356 183.046 96.8651 181.766L90.3377 185.782C90.9643 187.024 91.306 188.391 91.3379 189.782V223.036Z" fill="black"/>
<path d="M69.2216 193.482L62.0099 181.766V197.641L69.2216 193.482Z" fill="#00A4FF"/>
<path d="M75.9219 196.859L83.1185 209.319V193.467L75.9219 196.859Z" fill="#00A4FF"/>
<path d="M63.1003 181.232L70.5075 193.264C70.5388 193.29 70.5666 193.321 70.5902 193.354C70.5967 193.384 70.5967 193.415 70.5902 193.444L72.7936 197.024L74.6585 196.144C74.6876 196.113 74.7204 196.085 74.7563 196.061C74.8298 196.018 74.9121 195.993 74.9969 195.986L82.5169 192.459L63.1003 181.232Z" fill="#00A4FF"/>
<path d="M74.8315 197.37L72.8162 198.317C72.7385 198.354 72.6536 198.372 72.568 198.37C72.4642 198.371 72.3619 198.346 72.2709 198.295C72.18 198.245 72.1036 198.173 72.0491 198.084L69.8457 194.505L62.6115 198.686L82.0808 209.921L74.8315 197.37Z" fill="#00A4FF"/>
<g opacity="0.9">
<path d="M69.2216 193.482L62.0099 181.766V197.641L69.2216 193.482Z" fill="white"/>
<path d="M75.9219 196.858L83.1185 209.319V193.467L75.9219 196.858Z" fill="white"/>
<path d="M63.1003 181.232L70.5075 193.264C70.5388 193.29 70.5666 193.321 70.5902 193.354C70.5967 193.384 70.5967 193.415 70.5902 193.444L72.7936 197.024L74.6585 196.144C74.6876 196.113 74.7204 196.085 74.7563 196.061C74.8298 196.018 74.9121 195.993 74.9969 195.986L82.5169 192.459L63.1003 181.232Z" fill="white"/>
<path d="M74.8315 197.37L72.8162 198.317C72.7385 198.354 72.6536 198.372 72.568 198.37C72.4642 198.371 72.3619 198.346 72.2709 198.295C72.18 198.245 72.1036 198.173 72.0491 198.084L69.8457 194.505L62.6115 198.686L82.0808 209.921L74.8315 197.37Z" fill="white"/>
</g>
<path d="M94.1128 60.16L64.2057 42.864C63.862 42.6241 63.4633 42.4749 63.0466 42.4302C62.6299 42.3855 62.2086 42.4468 61.8219 42.6083C61.7401 42.646 61.6621 42.6914 61.5888 42.7437L55.084 46.5563H55.1291C54.3094 47.015 53.7905 48.1054 53.7905 49.647V82.9005C53.7905 85.7129 55.4976 88.9841 57.6107 90.2024L87.5177 107.498C87.8964 107.775 88.3483 107.933 88.8167 107.953C89.285 107.973 89.7488 107.854 90.1497 107.611L90.0971 107.649L96.5568 103.889C97.399 103.445 97.9329 102.385 97.9329 100.768V67.4318C97.9329 64.6193 96.256 61.3481 94.1128 60.16Z" fill="#00A4FF"/>
<path d="M96.8651 63.2883C96.2622 61.9981 95.3084 60.9035 94.1128 60.1299L64.2057 42.864C63.8621 42.6241 63.4634 42.4749 63.0466 42.4302C62.6299 42.3855 62.2086 42.4468 61.8219 42.6083C61.7401 42.646 61.6621 42.6914 61.5888 42.7437L55.084 46.5563C55.481 46.351 55.9269 46.2592 56.3727 46.2911C56.8185 46.3229 57.2469 46.4771 57.6107 46.7368L87.5177 64.0328C88.7541 64.8409 89.7328 65.9866 90.3377 67.3341L96.8651 63.2883Z" fill="#00A4FF"/>
<path d="M91.3379 104.528C91.3379 106.032 90.8566 107.077 90.0971 107.536L96.5568 103.776C97.399 103.332 97.9329 102.272 97.9329 100.655V67.4318C97.9011 65.9868 97.5356 64.5688 96.8651 63.2883L90.3377 67.304C90.9643 68.5466 91.306 69.9133 91.3379 71.3046V104.528Z" fill="#00A4FF"/>
<path opacity="0.3" d="M96.8651 63.2883C96.2622 61.9981 95.3084 60.9035 94.1128 60.1299L64.2057 42.864C63.8621 42.6241 63.4634 42.4749 63.0466 42.4302C62.6299 42.3855 62.2086 42.4468 61.8219 42.6083C61.7401 42.646 61.6621 42.6914 61.5888 42.7437L55.084 46.5563C55.481 46.351 55.9269 46.2592 56.3727 46.2911C56.8185 46.3229 57.2469 46.4771 57.6107 46.7368L87.5177 64.0328C88.7541 64.8409 89.7328 65.9866 90.3377 67.3341L96.8651 63.2883Z" fill="black"/>
<path opacity="0.6" d="M91.3379 104.528C91.3379 106.032 90.8566 107.077 90.0971 107.536L96.5568 103.776C97.399 103.332 97.9329 102.272 97.9329 100.655V67.4318C97.9011 65.9868 97.5356 64.5688 96.8651 63.2883L90.3377 67.304C90.9643 68.5466 91.306 69.9133 91.3379 71.3046V104.528Z" fill="black"/>
<path d="M81.5544 90.24C80.4038 88.3449 79.2457 86.48 78.0952 84.5699C77.9127 84.2081 77.6575 83.8878 77.3457 83.6291C77.0339 83.3703 76.6721 83.1786 76.2828 83.0659C75.7264 82.9531 75.1699 82.8253 74.5984 82.6598C74.3948 82.575 74.2236 82.4275 74.1096 82.2387C72.2269 79.0165 70.7301 75.5838 69.6502 72.0115C69.6272 71.9351 69.6207 71.8548 69.6311 71.7757C69.6415 71.6966 69.6685 71.6207 69.7104 71.5528C70.0638 71.1993 70.4624 70.876 70.8233 70.5601C71.1843 70.2443 71.3723 69.5149 71.1091 68.5673C70.5526 66.5595 70.0187 64.5517 69.4622 62.5513C69.3545 61.983 69.0991 61.453 68.7215 61.0147C68.344 60.5765 67.8576 60.2453 67.3115 60.0547C66.0988 59.7176 64.8114 59.7648 63.6267 60.1901C63.168 60.363 62.9273 60.7766 62.9198 61.491C63.1153 62.8672 63.2432 64.2283 63.5064 65.627C65.3613 75.7139 69.8232 84.9885 76.892 93.451C77.0765 93.7316 77.3244 93.965 77.6157 94.1322C77.907 94.2994 78.2335 94.3958 78.5689 94.4136C79.7392 94.3858 80.8635 93.9525 81.7499 93.1878C82.4192 92.5862 82.3515 91.5184 81.5544 90.24Z" fill="#00A4FF"/>
<path d="M81.4641 79.9903C81.3068 77.8272 80.7106 75.7189 79.7119 73.7938C78.9663 72.2899 78.0174 70.8956 76.8919 69.6503C76.5987 69.3194 76.3505 69.2141 76.2001 69.4623C76.0497 69.7104 76.2001 70.0639 76.4859 70.3872L76.7791 70.7256C78.8577 73.1249 80.1676 76.0932 80.5391 79.2458C80.5355 79.4757 80.5582 79.7053 80.6068 79.9301C80.7013 80.1887 80.8529 80.4226 81.0505 80.6144C81.2084 80.7272 81.3889 80.6144 81.5167 80.6144C81.4716 80.3061 81.4791 80.1482 81.4641 79.9903Z" fill="#00A4FF"/>
<path d="M74.651 73.8163C75.5953 74.855 76.1691 76.1771 76.2828 77.5763C76.3324 77.789 76.4108 77.994 76.5159 78.1854C76.9747 78.5614 77.2003 78.4336 77.2003 77.9598C77.0395 76.1658 76.2975 74.4734 75.0871 73.1395C74.8014 72.8462 74.5683 72.756 74.4329 73.0041C74.3842 73.1458 74.379 73.2988 74.4178 73.4435C74.4567 73.5882 74.5379 73.718 74.651 73.8163Z" fill="#00A4FF"/>
<g opacity="0.9">
<path d="M81.5544 90.24C80.4038 88.3449 79.2457 86.48 78.0952 84.5699C77.9127 84.2081 77.6575 83.8878 77.3457 83.6291C77.0339 83.3703 76.6721 83.1786 76.2828 83.0659C75.7264 82.9531 75.1699 82.8253 74.5984 82.6598C74.3948 82.575 74.2236 82.4275 74.1096 82.2387C72.2269 79.0165 70.7301 75.5838 69.6502 72.0115C69.6272 71.9351 69.6207 71.8548 69.6311 71.7757C69.6415 71.6966 69.6685 71.6207 69.7104 71.5528C70.0638 71.1993 70.4624 70.876 70.8233 70.5601C71.1843 70.2443 71.3723 69.5149 71.1091 68.5673C70.5526 66.5595 70.0187 64.5517 69.4622 62.5513C69.3545 61.983 69.0991 61.453 68.7215 61.0147C68.344 60.5765 67.8576 60.2453 67.3115 60.0547C66.0988 59.7176 64.8114 59.7648 63.6267 60.1901C63.168 60.363 62.9273 60.7766 62.9198 61.491C63.1153 62.8672 63.2432 64.2283 63.5064 65.627C65.3613 75.7139 69.8232 84.9885 76.892 93.451C77.0765 93.7316 77.3244 93.965 77.6157 94.1322C77.907 94.2994 78.2335 94.3958 78.5689 94.4136C79.7392 94.3858 80.8635 93.9525 81.7499 93.1878C82.4192 92.5862 82.3515 91.5184 81.5544 90.24Z" fill="white"/>
<path d="M81.4641 79.9903C81.3068 77.8272 80.7106 75.7189 79.7119 73.7938C78.9663 72.2899 78.0174 70.8956 76.8919 69.6503C76.5987 69.3194 76.3505 69.2141 76.2001 69.4623C76.0497 69.7104 76.2001 70.0639 76.4859 70.3872L76.7791 70.7256C78.8577 73.1249 80.1676 76.0932 80.5391 79.2458C80.5355 79.4757 80.5582 79.7053 80.6068 79.9301C80.7013 80.1887 80.8529 80.4226 81.0505 80.6144C81.2084 80.7272 81.3889 80.6144 81.5167 80.6144C81.4716 80.3061 81.4791 80.1482 81.4641 79.9903Z" fill="white"/>
<path d="M74.651 73.8163C75.5953 74.855 76.1691 76.1771 76.2828 77.5763C76.3324 77.789 76.4108 77.994 76.5159 78.1854C76.9747 78.5614 77.2003 78.4336 77.2003 77.9598C77.0395 76.1658 76.2975 74.4734 75.0871 73.1395C74.8014 72.8462 74.5683 72.756 74.4329 73.0041C74.3842 73.1458 74.379 73.2988 74.4178 73.4435C74.4567 73.5882 74.5379 73.718 74.651 73.8163Z" fill="white"/>
</g>
<path d="M247.558 40.217L254.605 44.2252V41.7285C254.605 41.5556 254.605 41.3751 254.605 41.2021C254.605 41.0292 254.605 40.8637 254.605 40.6983V40.608C254.86 37.3068 257.364 36.0359 260.418 37.8031C261.8 38.6532 262.984 39.7891 263.892 41.1344C264.576 36.6224 268.238 35.0282 272.668 37.5775C277.586 40.42 281.571 47.3535 281.571 53.0085V58.3477C281.564 58.7748 281.67 59.1962 281.877 59.5698C282.084 59.9433 282.386 60.2558 282.752 60.4759L286.903 62.9048C287.799 63.436 288.542 64.1906 289.058 65.0949C289.575 65.9992 289.848 67.0221 289.851 68.0636C289.851 68.4956 289.737 68.9201 289.521 69.2943C289.305 69.6684 288.994 69.979 288.62 70.1948C288.245 70.4106 287.821 70.5239 287.389 70.5233C286.957 70.5228 286.532 70.4084 286.159 70.1917L247.664 47.94C246.642 47.347 245.794 46.497 245.203 45.4746C244.612 44.4522 244.299 43.293 244.295 42.112C244.294 41.7298 244.394 41.3542 244.585 41.0228C244.776 40.6914 245.05 40.416 245.38 40.224C245.711 40.0321 246.086 39.9304 246.468 39.9292C246.851 39.9279 247.227 40.0272 247.558 40.217Z" fill="#E6E6E6"/>
<path d="M301.274 39.1717L306.395 42.112V40.2771C306.395 40.1493 306.395 40.0214 306.395 39.8936C306.395 39.7657 306.395 39.6454 306.395 39.5251V39.48C306.583 37.0811 308.403 36.1562 310.621 37.4421C311.626 38.0576 312.487 38.8806 313.148 39.856C313.652 36.5923 316.314 35.4117 319.532 37.2691C323.112 39.3371 326.007 44.3605 326.007 48.489V52.3768C326.01 52.6816 326.092 52.9804 326.244 53.2441C326.397 53.5077 326.616 53.7271 326.879 53.8808L329.887 55.648C330.542 56.0329 331.084 56.5826 331.46 57.2423C331.836 57.902 332.033 58.6487 332.031 59.408C332.03 59.719 331.949 60.0245 331.794 60.2944C331.64 60.5643 331.417 60.7893 331.149 60.9472C330.881 61.1051 330.577 61.1904 330.266 61.1948C329.955 61.1992 329.648 61.1224 329.376 60.9722L301.349 44.7891C300.606 44.3595 299.99 43.7422 299.561 42.9991C299.132 42.2561 298.906 41.4133 298.905 40.5554C298.904 40.2777 298.977 40.0047 299.115 39.7637C299.253 39.5228 299.452 39.3222 299.691 39.1822C299.931 39.0421 300.203 38.9674 300.481 38.9656C300.759 38.9637 301.032 39.0348 301.274 39.1717Z" fill="#E6E6E6"/>
</svg>
