<svg width="382" height="437" viewBox="0 0 382 437" fill="none" xmlns="http://www.w3.org/2000/svg">
<path d="M261.6 168.982V168.994V246.518L310.966 287.432L310.646 287.817L310.966 287.432L339.256 310.897L338.937 311.282L339.256 310.897C357.184 325.777 371.423 343.967 381.5 364.24V102.204C381.5 46.506 336.306 1.35736 280.551 1.35736H0.5V436.357H120.4V308.013V306.948L121.22 307.628L161.744 341.267L276.358 436.357H381.499C381.426 414.73 376.584 393.624 367.601 374.527L367.601 374.527C358.548 355.252 345.259 337.896 328.464 323.98L328.783 323.595L328.464 323.98L260.78 267.853L261.1 267.468L260.78 267.853L244.907 254.684L161.075 185.144L161.074 185.144L159.057 183.464L261.6 168.982ZM261.6 168.982L261.599 168.97M261.6 168.982L261.599 168.97M261.599 168.97C260.301 142.336 238.245 121.136 211.278 121.136H177.604C156.984 121.136 137.034 113.935 121.189 100.78L120.37 100.1M261.599 168.97L120.37 100.1M120.37 100.1V101.165M120.37 100.1V101.165M120.37 101.165C120.37 132.967 134.535 163.142 159.056 183.463L120.37 101.165Z" stroke="url(#paint0_linear_128_241)"/>
<defs>
<linearGradient id="paint0_linear_128_241" x1="0" y1="0.857361" x2="282.145" y2="352.677" gradientUnits="userSpaceOnUse">
<stop stop-color="#00A4FF"/>
<stop offset="1" stop-color="#00A4FF" stop-opacity="0"/>
</linearGradient>
</defs>
</svg>
