<svg xmlns="http://www.w3.org/2000/svg" width="32" height="38" viewBox="0 0 32 38" fill="none">
  <path d="M21.7571 21.3268V14.8407C21.6501 12.6413 19.8304 10.8904 17.6055 10.8904H14.7996C13.0716 10.8904 11.3998 10.2864 10.072 9.18287C10.072 11.8232 11.2468 14.3284 13.2806 16.0156L13.4488 16.1558L20.4344 21.9563L21.7571 23.0547L27.3971 27.7365C28.8014 28.9012 29.9126 30.3539 30.6695 31.9671C31.4264 33.5778 31.8316 35.3592 31.8316 37.184H23.0136L13.4514 29.2427L10.0745 26.4367V37.184H0V0.815918H23.378C28.047 0.815918 31.8316 4.60054 31.8316 9.26952V31.307C30.9906 29.5561 29.7801 27.9862 28.2433 26.7094L25.8858 24.7521L21.7571 21.3268Z" fill="#00A4FF"/>
</svg>