<svg width="223" height="38" viewBox="0 0 223 38" fill="none" xmlns="http://www.w3.org/2000/svg">
<path d="M21.7571 21.3268V14.8407C21.6501 12.6413 19.8304 10.8904 17.6055 10.8904H14.7996C13.0716 10.8904 11.3998 10.2864 10.072 9.18287C10.072 11.8232 11.2468 14.3284 13.2806 16.0156L13.4488 16.1558L20.4344 21.9563L21.7571 23.0547L27.3971 27.7365C28.8014 28.9012 29.9126 30.3539 30.6695 31.9671C31.4264 33.5778 31.8316 35.3592 31.8316 37.184H23.0136L13.4514 29.2427L10.0745 26.4367V37.184H0V0.815918H23.378C28.047 0.815918 31.8316 4.60054 31.8316 9.26952V31.307C30.9906 29.5561 29.7801 27.9862 28.2433 26.7094L25.8858 24.7521L21.7571 21.3268Z" fill="#00A4FF"/>
<path d="M44.0037 30.3208V6.94019H56.8179C58.5433 6.94019 59.9806 7.24601 61.1301 7.86022C62.2769 8.47442 63.1358 9.33074 63.7041 10.4343C64.2724 11.5378 64.5553 12.8019 64.5553 14.2342C64.5553 15.7557 64.2138 17.1039 63.5334 18.2737C62.8529 19.4435 61.864 20.3355 60.5694 20.9497L65.3403 30.3208H59.7182L55.5946 21.8009H49.0855V30.3208H44.0037ZM49.0804 17.7793H56.1349C57.1568 17.7793 57.952 17.4683 58.5203 16.8414C59.0887 16.217 59.3715 15.3709 59.3715 14.303C59.3715 13.6225 59.2467 13.0364 58.9969 12.547C58.7471 12.0577 58.3827 11.6907 57.9061 11.4384C57.4295 11.1887 56.8383 11.0638 56.1349 11.0638H49.0804V17.7793Z" fill="#FAFAFA"/>
<path d="M77.13 30.7285C74.6528 30.7285 72.5171 30.2851 70.7229 29.3982C68.9287 28.5113 67.5525 27.1707 66.5993 25.3765C65.6461 23.5823 65.167 21.3319 65.167 18.6279C65.167 15.878 65.6436 13.6123 66.5993 11.8283C67.5525 10.0443 68.9287 8.71651 70.7229 7.8398C72.5171 6.96564 74.6528 6.52728 77.13 6.52728C79.6531 6.52728 81.8041 6.96564 83.5881 7.8398C85.3721 8.71396 86.7406 10.0443 87.6938 11.8283C88.647 13.6123 89.1261 15.878 89.1261 18.6279C89.1261 21.3319 88.6495 23.5823 87.6938 25.3765C86.7406 27.1707 85.3695 28.5113 83.5881 29.3982C81.8041 30.2876 79.6505 30.7285 77.13 30.7285ZM77.13 26.5718C78.2437 26.5718 79.2198 26.4138 80.0608 26.0952C80.9019 25.7766 81.6053 25.3001 82.1736 24.6629C82.7419 24.0283 83.1726 23.2485 83.4683 22.3284C83.7639 21.4084 83.9117 20.3584 83.9117 19.1758V18.1207C83.9117 16.9178 83.7639 15.85 83.4683 14.9172C83.1726 13.987 82.7419 13.2071 82.1736 12.5827C81.6053 11.9583 80.9019 11.4868 80.0608 11.1682C79.2198 10.8497 78.2437 10.6917 77.13 10.6917C76.0392 10.6917 75.0733 10.8497 74.2323 11.1682C73.3912 11.4868 72.6878 11.9583 72.1195 12.5827C71.5512 13.2071 71.1255 13.987 70.8427 14.9172C70.5572 15.85 70.417 16.9178 70.417 18.1207V19.1758C70.417 20.3584 70.5598 21.4084 70.8427 22.3284C71.1255 23.2485 71.5537 24.0283 72.1195 24.6629C72.6878 25.3001 73.3912 25.7766 74.2323 26.0952C75.0733 26.4138 76.0392 26.5718 77.13 26.5718Z" fill="#FAFAFA"/>
<path d="M90.7291 30.3208V6.94019H95.3981L104.805 19.5505C104.94 19.7085 105.111 19.9303 105.317 20.2157C105.521 20.5011 105.715 20.7789 105.896 21.0516C106.077 21.3243 106.201 21.5409 106.27 21.699H106.441C106.441 21.3141 106.441 20.9318 106.441 20.5572C106.441 20.1826 106.441 19.8461 106.441 19.5505V6.94019H111.245V30.3208H106.576L96.9655 17.4046C96.7387 17.086 96.4991 16.7343 96.2493 16.3495C95.9996 15.9621 95.8186 15.669 95.7039 15.4626H95.5332C95.5332 15.8041 95.5332 16.138 95.5332 16.4693C95.5332 16.7981 95.5332 17.1115 95.5332 17.4072V30.3233H90.7291V30.3208Z" fill="#FAFAFA"/>
<path d="M111.518 30.3208L120.514 6.94019H126.784L135.783 30.3208H130.296L128.626 25.7206H118.437L116.768 30.3208H111.518ZM119.9 21.6301H127.158L125.079 15.8704C124.987 15.6206 124.88 15.3199 124.755 14.9682C124.63 14.6165 124.5 14.224 124.363 13.7933C124.225 13.3626 124.095 12.937 123.97 12.5165C123.845 12.0959 123.726 11.7162 123.613 11.3747H123.41C123.295 11.8054 123.147 12.3126 122.966 12.8911C122.785 13.4696 122.602 14.0278 122.421 14.5604C122.24 15.0956 122.092 15.5314 121.977 15.8729L119.9 21.6301Z" fill="#FAFAFA"/>
<path d="M136.055 30.3208V6.94019H141.135V25.9908H152.927V30.3182H136.055V30.3208Z" fill="#FAFAFA"/>
<path d="M153.676 30.3208V6.94019H163.218C165.65 6.94019 167.716 7.3607 169.421 8.20172C171.126 9.04275 172.439 10.3196 173.359 12.0348C174.279 13.75 174.74 15.9494 174.74 18.6305C174.74 21.2886 174.279 23.483 173.359 25.2083C172.439 26.9363 171.126 28.2182 169.421 29.0592C167.716 29.9003 165.65 30.3208 163.218 30.3208H153.676ZM158.753 26.1284H163.182C164.204 26.1284 165.114 25.9806 165.909 25.6849C166.705 25.3893 167.362 24.9535 167.887 24.3724C168.41 23.7939 168.807 23.065 169.08 22.1908C169.353 21.3167 169.49 20.2998 169.49 19.1402V18.1182C169.49 16.9586 169.353 15.9417 169.08 15.0676C168.807 14.1934 168.41 13.4645 167.887 12.886C167.365 12.3075 166.705 11.864 165.909 11.5556C165.114 11.2498 164.204 11.0969 163.182 11.0969H158.753V26.1284Z" fill="#FAFAFA"/>
<path d="M175.971 30.3207V28.4807H177.5V30.3207H175.971Z" fill="#FAFAFA"/>
<path d="M180.296 30.3208V13.9283H185.888C187.672 13.9283 189.186 14.2087 190.429 14.7643C191.673 15.3224 192.618 16.2017 193.273 17.4046C193.926 18.6075 194.252 20.18 194.252 22.1245C194.252 24.036 193.926 25.5983 193.273 26.8088C192.621 28.0194 191.673 28.9088 190.429 29.4721C189.186 30.0379 187.672 30.3208 185.888 30.3208H180.296ZM181.588 29.1739H185.793C186.861 29.1739 187.827 29.0592 188.696 28.8273C189.565 28.5954 190.312 28.2182 190.942 27.6932C191.571 27.1682 192.053 26.4699 192.387 25.6033C192.72 24.7343 192.889 23.6715 192.889 22.4125V21.9334C192.889 20.6285 192.72 19.5352 192.387 18.6585C192.053 17.7818 191.574 17.0809 190.952 16.5559C190.33 16.0309 189.586 15.6512 188.717 15.4218C187.848 15.1899 186.871 15.0752 185.788 15.0752H181.583V29.1739H181.588Z" fill="#FAFAFA"/>
<path d="M196.235 30.3208V13.9283H208.662V15.0752H197.527V21.337H207.612V22.4839H197.527V29.1739H208.807V30.3208H196.235Z" fill="#FAFAFA"/>
<path d="M214.972 30.3208L208.662 13.9283H210.048L214.636 25.9245C214.763 26.2277 214.895 26.5693 215.031 26.9515C215.166 27.3338 215.301 27.7136 215.436 28.0857C215.571 28.4603 215.686 28.7916 215.782 29.0771H215.951C216.063 28.7916 216.183 28.4603 216.31 28.0857C216.437 27.711 216.572 27.3338 216.715 26.9515C216.858 26.5693 216.985 26.2277 217.097 25.9245L221.614 13.9283H223L216.692 30.3208H214.972Z" fill="#FAFAFA"/>
</svg>
