<?xml version="1.0" encoding="utf-8"?>
<!-- Generator: Adobe Illustrator 28.3.0, SVG Export Plug-In . SVG Version: 6.00 Build 0)  -->
<svg version="1.1" id="Camada_1" xmlns="http://www.w3.org/2000/svg" xmlns:xlink="http://www.w3.org/1999/xlink" x="0px" y="0px"
	 viewBox="0 0 512 512" style="enable-background:new 0 0 512 512;" xml:space="preserve">
<style type="text/css">
	.st0{fill:#D8FF80;}
</style>
<g>
	<g>
		<g>
			<g>
				<path class="st0" d="M500.88,311.81l-28.29-49.17v-0.03l-2.09-3.65l-1.43-2.46l-0.3-0.5l3.82-6.54l2.49-4.28l25.47-43.86
					l-25.66-44.66h0.13l-44.13-76.73l-50.77-0.1l-31.77-55.35l-184.24-0.4l-32.01,55.08h-30.88l-19.92-0.03l-44.46,76.6h0.13
					l-25.86,44.46l28.29,49.17l2.03,3.52l1.49,2.62l0.3,0.5l-3.82,6.54l-2.49,4.28l-25.47,43.86l25.67,44.66h-0.13l44.13,76.73
					l50.77,0.1l31.77,55.35l184.24,0.4l32.01-55.08h30.88l19.92,0.03l44.46-76.6h-0.13L500.88,311.81z M417.58,389.34l-5.98,10.29
					l-50.73-0.13l-19.39,33.33l-12.72,21.85l-118.96-0.27h-0.03l-26.89-0.07l-12.35-21.51l-19.42-33.8l-10.26-17.86l-9.5-16.5
					h124.94v68.16h33.2V331.5H74.07l19.02,33.17l19.69,34.26l-12.45-0.03l-12.55-21.88l-7.07-12.35L65.9,338.81l-4.18-7.3
					L49.8,310.78l6.21-10.69l6.31-10.89h136.03V158.92h-77.86v33.2h44.66V256H81.01l0.23-0.4l-3.59-6.24l-28.19-49.07l44.96-77.63
					l5.98-10.29l50.73,0.13l19.39-33.33l12.72-21.85l39.28,0.1l79.68,0.17h0.03l26.89,0.07l12.35,21.51l19.42,33.8l10.26,17.86
					l9.5,16.5H255.72V79.17h-33.2V180.5h215.41l-19.02-33.17l-19.69-34.26l12.45,0.03l12.55,21.88l7.07,12.35l14.81,25.86l4.18,7.3
					l11.92,20.72l-6.21,10.69l-6.31,10.89H313.65v130.28h77.89v-33.2h-44.69V256h84.13l-0.23,0.4l3.59,6.24l28.19,49.07
					L417.58,389.34z"/>
			</g>
		</g>
	</g>
</g>
</svg>
